<svg class="plot-d6a7b5" fill="currentColor" font-family="system-ui, sans-serif" font-size="10" text-anchor="middle" width="640" height="350" viewBox="0 0 640 350" xmlns="http://www.w3.org/2000/svg" xmlns:xlink="http://www.w3.org/1999/xlink"><style>.plot-d6a7b5 {
  display: block;
  background: white;
  height: auto;
  height: intrinsic;
  max-width: 100%;
}
.plot-d6a7b5 text,
.plot-d6a7b5 tspan {
  white-space: pre;
}</style><g aria-label="y-grid" stroke="currentColor" stroke-opacity="0.1"><line x1="40" x2="620" y1="320" y2="320"/><line x1="40" x2="620" y1="291.20085525971336" y2="291.20085525971336"/><line x1="40" x2="620" y1="262.4017105194268" y2="262.4017105194268"/><line x1="40" x2="620" y1="233.60256577914018" y2="233.60256577914018"/><line x1="40" x2="620" y1="204.80342103885357" y2="204.80342103885357"/><line x1="40" x2="620" y1="176.0042762985669" y2="176.0042762985669"/><line x1="40" x2="620" y1="147.20513155828033" y2="147.20513155828033"/><line x1="40" x2="620" y1="118.4059868179937" y2="118.4059868179937"/><line x1="40" x2="620" y1="89.6068420777071" y2="89.6068420777071"/><line x1="40" x2="620" y1="60.80769733742052" y2="60.80769733742052"/><line x1="40" x2="620" y1="32.008552597133885" y2="32.008552597133885"/></g><g aria-label="y-axis tick" fill="none" stroke="currentColor"><path transform="translate(40,320)" d="M0,0L-6,0"/><path transform="translate(40,291.20085525971336)" d="M0,0L-6,0"/><path transform="translate(40,262.4017105194268)" d="M0,0L-6,0"/><path transform="translate(40,233.60256577914018)" d="M0,0L-6,0"/><path transform="translate(40,204.80342103885357)" d="M0,0L-6,0"/><path transform="translate(40,176.0042762985669)" d="M0,0L-6,0"/><path transform="translate(40,147.20513155828033)" d="M0,0L-6,0"/><path transform="translate(40,118.4059868179937)" d="M0,0L-6,0"/><path transform="translate(40,89.6068420777071)" d="M0,0L-6,0"/><path transform="translate(40,60.80769733742052)" d="M0,0L-6,0"/><path transform="translate(40,32.008552597133885)" d="M0,0L-6,0"/></g><g aria-label="y-axis tick label" text-anchor="end" font-variant="tabular-nums" transform="translate(-9,0)"><text y="0.32em" transform="translate(40,320)">0.00</text><text y="0.32em" transform="translate(40,291.20085525971336)">0.02</text><text y="0.32em" transform="translate(40,262.4017105194268)">0.04</text><text y="0.32em" transform="translate(40,233.60256577914018)">0.06</text><text y="0.32em" transform="translate(40,204.80342103885357)">0.08</text><text y="0.32em" transform="translate(40,176.0042762985669)">0.10</text><text y="0.32em" transform="translate(40,147.20513155828033)">0.12</text><text y="0.32em" transform="translate(40,118.4059868179937)">0.14</text><text y="0.32em" transform="translate(40,89.6068420777071)">0.16</text><text y="0.32em" transform="translate(40,60.80769733742052)">0.18</text><text y="0.32em" transform="translate(40,32.008552597133885)">0.20</text></g><g aria-label="y-axis label" text-anchor="start" transform="translate(-37,-17)"><text transform="translate(40,20)"><tspan x="0" y="0.71em">↑ equilibrium</tspan><tspan x="0" dy="1em">prevalence</tspan></text></g><g aria-label="x-axis tick" fill="none" stroke="currentColor"><path transform="translate(40,320)" d="M0,0L0,6"/><path transform="translate(145.45454545454547,320)" d="M0,0L0,6"/><path transform="translate(250.90909090909093,320)" d="M0,0L0,6"/><path transform="translate(356.3636363636363,320)" d="M0,0L0,6"/><path transform="translate(461.81818181818187,320)" d="M0,0L0,6"/><path transform="translate(567.2727272727273,320)" d="M0,0L0,6"/></g><g aria-label="x-axis tick label" font-variant="tabular-nums" transform="translate(0,9)"><text y="0.71em" transform="translate(40,320)">0.06</text><text y="0.71em" transform="translate(145.45454545454547,320)">0.08</text><text y="0.71em" transform="translate(250.90909090909093,320)">0.10</text><text y="0.71em" transform="translate(356.3636363636363,320)">0.12</text><text y="0.71em" transform="translate(461.81818181818187,320)">0.14</text><text y="0.71em" transform="translate(567.2727272727273,320)">0.16</text></g><g aria-label="x-axis label" text-anchor="end" transform="translate(17,27)"><text transform="translate(620,320)">β →</text></g><g aria-label="rule" stroke="currentColor"><line x1="40" x2="620" y1="320" y2="320"/></g><g aria-label="line" fill="none" stroke="purple" stroke-width="1.5" stroke-linejoin="round" stroke-linecap="round"><path d="M40,319.948L92.727,319.808L145.455,319.643L198.182,319.492L250.909,147.495L303.636,80.069L356.364,68.094L409.091,64.196L461.818,59.161L514.545,50.204L567.273,37.404L620,20"/></g><g aria-label="line" fill="none" stroke="blue" stroke-width="1.5" stroke-linejoin="round" stroke-linecap="round"><path d="M40,319.945L92.727,265.705L145.455,152.258L198.182,144.07L250.909,158.339L303.636,167.544L356.364,166.329L409.091,154.014L461.818,131.107L514.545,104.477L567.273,85.321L620,77.32"/></g></svg>