<svg class="plot-d6a7b5" fill="currentColor" font-family="system-ui, sans-serif" font-size="10" text-anchor="middle" width="450" height="350" viewBox="0 0 450 350" xmlns="http://www.w3.org/2000/svg" xmlns:xlink="http://www.w3.org/1999/xlink"><style>.plot-d6a7b5 {
  display: block;
  background: white;
  height: auto;
  height: intrinsic;
  max-width: 100%;
}
.plot-d6a7b5 text,
.plot-d6a7b5 tspan {
  white-space: pre;
}</style><g aria-label="rule" stroke="currentColor"><line x1="50" x2="430" y1="315" y2="315"/></g><g aria-label="y-axis tick" fill="none" stroke="currentColor"><path transform="translate(50,315)" d="M0,0L-6,0"/><path transform="translate(50,249.5099317973206)" d="M0,0L-6,0"/><path transform="translate(50,184.0198635946412)" d="M0,0L-6,0"/><path transform="translate(50,118.52979539196185)" d="M0,0L-6,0"/><path transform="translate(50,53.03972718928246)" d="M0,0L-6,0"/></g><g aria-label="y-axis tick label" text-anchor="end" font-variant="tabular-nums" transform="translate(-9,0)"><text y="0.32em" transform="translate(50,315)">0.00</text><text y="0.32em" transform="translate(50,249.5099317973206)">0.05</text><text y="0.32em" transform="translate(50,184.0198635946412)">0.10</text><text y="0.32em" transform="translate(50,118.52979539196185)">0.15</text><text y="0.32em" transform="translate(50,53.03972718928246)">0.20</text></g><g aria-label="y-axis label" transform="translate(-47,0)"><text y="0.71em" transform="translate(50,167.5) rotate(-90)">equilibrium prevalence</text></g><g aria-label="x-axis tick" fill="none" stroke="currentColor"><path transform="translate(50,315)" d="M0,0L0,6"/><path transform="translate(119.0909090909091,315)" d="M0,0L0,6"/><path transform="translate(188.1818181818182,315)" d="M0,0L0,6"/><path transform="translate(257.27272727272725,315)" d="M0,0L0,6"/><path transform="translate(326.3636363636364,315)" d="M0,0L0,6"/><path transform="translate(395.45454545454544,315)" d="M0,0L0,6"/></g><g aria-label="x-axis tick label" font-variant="tabular-nums" transform="translate(0,9)"><text y="0.71em" transform="translate(50,315)">0.06</text><text y="0.71em" transform="translate(119.0909090909091,315)">0.08</text><text y="0.71em" transform="translate(188.1818181818182,315)">0.10</text><text y="0.71em" transform="translate(257.27272727272725,315)">0.12</text><text y="0.71em" transform="translate(326.3636363636364,315)">0.14</text><text y="0.71em" transform="translate(395.45454545454544,315)">0.16</text></g><g aria-label="x-axis label" transform="translate(0,32)"><text transform="translate(240,315)">β</text></g><g aria-label="line" fill="none" stroke="purple" stroke-width="1.5" stroke-linejoin="round" stroke-linecap="round"><path d="M50,314.958L84.545,244.812L119.091,163.657L153.636,168.072L188.182,189.456L222.727,203.425L257.273,205.341L291.818,193.72L326.364,167.288L360.909,136.33L395.455,116.553L430,110.388"/></g><g aria-label="line" fill="none" stroke="blue" stroke-width="1.5" stroke-linejoin="round" stroke-linecap="round"><path d="M50,315L84.545,258.423L119.091,147.128L153.636,114.379L188.182,102.004L222.727,92.079L257.273,80.203L291.818,66.167L326.364,51.407L360.909,38.276L395.455,27.881L430,20"/></g><rect aria-label="frame" fill="none" stroke="currentColor" x="50" y="20" width="380" height="295"/><g aria-label="tip" fill="white" stroke="currentColor" text-anchor="start"><g transform="translate(361,136)"><path filter="drop-shadow(0 3px 4px rgba(0,0,0,0.2))" d="M0,0l12,12h50v29h-62z"/><text fill="currentColor" fill-opacity="1" stroke="none" y="-0.06em" transform="translate(8,20)"><tspan x="0" dy="1em">​η = 0.005</tspan></text></g></g><g aria-label="tip" fill="white" stroke="currentColor" text-anchor="start"><g transform="translate(361,38)"><path filter="drop-shadow(0 3px 4px rgba(0,0,0,0.2))" d="M0,0l12,12h44v29h-56z"/><text fill="currentColor" fill-opacity="1" stroke="none" y="-0.06em" transform="translate(8,20)"><tspan x="0" dy="1em">​η = 0.05</tspan></text></g></g></svg>